<svg xmlns="http://www.w3.org/2000/svg" xmlns:xlink="http://www.w3.org/1999/xlink" width="80" zoomAndPan="magnify" viewBox="0 0 60 74.999997" height="100" preserveAspectRatio="xMidYMid meet" version="1.0"><defs><g/><clipPath id="98ef2d6e2b"><path d="M 6 29.535156 L 39.953125 29.535156 L 39.953125 58.800781 L 6 58.800781 Z M 6 29.535156 " clip-rule="nonzero"/></clipPath><clipPath id="bbcbd81876"><path d="M 22.96875 29.535156 C 13.597656 29.535156 6 36.085938 6 44.167969 C 6 52.25 13.597656 58.800781 22.96875 58.800781 C 32.339844 58.800781 39.9375 52.25 39.9375 44.167969 C 39.9375 36.085938 32.339844 29.535156 22.96875 29.535156 Z M 22.96875 29.535156 " clip-rule="nonzero"/></clipPath><clipPath id="4e17a81be8"><path d="M 0 0.535156 L 33.953125 0.535156 L 33.953125 29.800781 L 0 29.800781 Z M 0 0.535156 " clip-rule="nonzero"/></clipPath><clipPath id="204db85357"><path d="M 16.96875 0.535156 C 7.597656 0.535156 0 7.085938 0 15.167969 C 0 23.25 7.597656 29.800781 16.96875 29.800781 C 26.339844 29.800781 33.9375 23.25 33.9375 15.167969 C 33.9375 7.085938 26.339844 0.535156 16.96875 0.535156 Z M 16.96875 0.535156 " clip-rule="nonzero"/></clipPath><clipPath id="d1c5415672"><rect x="0" width="34" y="0" height="30"/></clipPath><clipPath id="c7101777d4"><path d="M 18.523438 29.535156 L 54 29.535156 L 54 58.800781 L 18.523438 58.800781 Z M 18.523438 29.535156 " clip-rule="nonzero"/></clipPath><clipPath id="0fd0eb48c0"><path d="M 36.261719 29.535156 C 26.464844 29.535156 18.523438 36.085938 18.523438 44.167969 C 18.523438 52.25 26.464844 58.800781 36.261719 58.800781 C 46.058594 58.800781 54 52.25 54 44.167969 C 54 36.085938 46.058594 29.535156 36.261719 29.535156 Z M 36.261719 29.535156 " clip-rule="nonzero"/></clipPath><clipPath id="e34b6ab4b4"><path d="M 0.523438 0.535156 L 36 0.535156 L 36 29.800781 L 0.523438 29.800781 Z M 0.523438 0.535156 " clip-rule="nonzero"/></clipPath><clipPath id="5193857733"><path d="M 18.261719 0.535156 C 8.464844 0.535156 0.523438 7.085938 0.523438 15.167969 C 0.523438 23.25 8.464844 29.800781 18.261719 29.800781 C 28.058594 29.800781 36 23.25 36 15.167969 C 36 7.085938 28.058594 0.535156 18.261719 0.535156 Z M 18.261719 0.535156 " clip-rule="nonzero"/></clipPath><clipPath id="33926ccc3b"><rect x="0" width="36" y="0" height="30"/></clipPath><clipPath id="3818a176f4"><path d="M 10.050781 9.675781 L 50 9.675781 L 50 40.128906 L 10.050781 40.128906 Z M 10.050781 9.675781 " clip-rule="nonzero"/></clipPath><clipPath id="85bacd7599"><path d="M 30 9.675781 C 18.980469 9.675781 10.050781 16.496094 10.050781 24.902344 C 10.050781 33.3125 18.980469 40.128906 30 40.128906 C 41.019531 40.128906 49.949219 33.3125 49.949219 24.902344 C 49.949219 16.496094 41.019531 9.675781 30 9.675781 Z M 30 9.675781 " clip-rule="nonzero"/></clipPath><clipPath id="be08eee630"><path d="M 0.0507812 0.675781 L 40 0.675781 L 40 31.128906 L 0.0507812 31.128906 Z M 0.0507812 0.675781 " clip-rule="nonzero"/></clipPath><clipPath id="f7e5dd5fdc"><path d="M 20 0.675781 C 8.980469 0.675781 0.0507812 7.496094 0.0507812 15.902344 C 0.0507812 24.3125 8.980469 31.128906 20 31.128906 C 31.019531 31.128906 39.949219 24.3125 39.949219 15.902344 C 39.949219 7.496094 31.019531 0.675781 20 0.675781 Z M 20 0.675781 " clip-rule="nonzero"/></clipPath><clipPath id="06d7381f3a"><rect x="0" width="40" y="0" height="32"/></clipPath><clipPath id="2a17beca7b"><path d="M 6 24.074219 L 54 24.074219 L 54 50.925781 L 6 50.925781 Z M 6 24.074219 " clip-rule="nonzero"/></clipPath><clipPath id="b76fe8ab93"><path d="M 30 24.074219 C 16.746094 24.074219 6 30.085938 6 37.5 C 6 44.914062 16.746094 50.925781 30 50.925781 C 43.253906 50.925781 54 44.914062 54 37.5 C 54 30.085938 43.253906 24.074219 30 24.074219 Z M 30 24.074219 " clip-rule="nonzero"/></clipPath><clipPath id="a1288cbc7f"><path d="M 0 0.0742188 L 48 0.0742188 L 48 26.925781 L 0 26.925781 Z M 0 0.0742188 " clip-rule="nonzero"/></clipPath><clipPath id="7ff8506888"><path d="M 24 0.0742188 C 10.746094 0.0742188 0 6.085938 0 13.5 C 0 20.914062 10.746094 26.925781 24 26.925781 C 37.253906 26.925781 48 20.914062 48 13.5 C 48 6.085938 37.253906 0.0742188 24 0.0742188 Z M 24 0.0742188 " clip-rule="nonzero"/></clipPath><clipPath id="e62caf6944"><rect x="0" width="48" y="0" height="27"/></clipPath><clipPath id="5ee0e7a26b"><path d="M 17.25 6 L 43.132812 6 L 43.132812 30.449219 L 17.25 30.449219 Z M 17.25 6 " clip-rule="nonzero"/></clipPath><clipPath id="c51cf25a12"><path d="M 30.148438 6 C 23.027344 6 17.25 11.472656 17.25 18.226562 C 17.25 24.976562 23.027344 30.449219 30.148438 30.449219 C 37.273438 30.449219 43.050781 24.976562 43.050781 18.226562 C 43.050781 11.472656 37.273438 6 30.148438 6 Z M 30.148438 6 " clip-rule="nonzero"/></clipPath><clipPath id="2637227b23"><path d="M 0.25 0 L 26.132812 0 L 26.132812 24.449219 L 0.25 24.449219 Z M 0.25 0 " clip-rule="nonzero"/></clipPath><clipPath id="b1be31edb1"><path d="M 13.148438 0 C 6.027344 0 0.25 5.472656 0.25 12.226562 C 0.25 18.976562 6.027344 24.449219 13.148438 24.449219 C 20.273438 24.449219 26.050781 18.976562 26.050781 12.226562 C 26.050781 5.472656 20.273438 0 13.148438 0 Z M 13.148438 0 " clip-rule="nonzero"/></clipPath><clipPath id="18f0af7d9e"><rect x="0" width="27" y="0" height="25"/></clipPath><clipPath id="10f56d36cf"><path d="M 7.011719 12.75 L 52.78125 12.75 L 52.78125 55.050781 L 7.011719 55.050781 Z M 7.011719 12.75 " clip-rule="nonzero"/></clipPath><clipPath id="d0d5fb1fca"><path d="M 29.886719 12.75 C 17.253906 12.75 7.011719 22.21875 7.011719 33.898438 C 7.011719 45.582031 17.253906 55.050781 29.886719 55.050781 C 42.523438 55.050781 52.761719 45.582031 52.761719 33.898438 C 52.761719 22.21875 42.523438 12.75 29.886719 12.75 Z M 29.886719 12.75 " clip-rule="nonzero"/></clipPath><clipPath id="5bdc9198b9"><path d="M 0.0117188 0.75 L 45.78125 0.75 L 45.78125 43.050781 L 0.0117188 43.050781 Z M 0.0117188 0.75 " clip-rule="nonzero"/></clipPath><clipPath id="605fa64ad1"><path d="M 22.886719 0.75 C 10.253906 0.75 0.0117188 10.21875 0.0117188 21.898438 C 0.0117188 33.582031 10.253906 43.050781 22.886719 43.050781 C 35.523438 43.050781 45.761719 33.582031 45.761719 21.898438 C 45.761719 10.21875 35.523438 0.75 22.886719 0.75 Z M 22.886719 0.75 " clip-rule="nonzero"/></clipPath><clipPath id="bd88189fec"><rect x="0" width="46" y="0" height="44"/></clipPath><clipPath id="806ed1ffc8"><path d="M 19.839844 3.148438 L 39.9375 3.148438 L 39.9375 45 L 19.839844 45 Z M 19.839844 3.148438 " clip-rule="nonzero"/></clipPath><clipPath id="8e2140b0a1"><path d="M 29.886719 3.148438 C 24.335938 3.148438 19.839844 12.519531 19.839844 24.074219 C 19.839844 35.632812 24.335938 45 29.886719 45 C 35.4375 45 39.9375 35.632812 39.9375 24.074219 C 39.9375 12.519531 35.4375 3.148438 29.886719 3.148438 Z M 29.886719 3.148438 " clip-rule="nonzero"/></clipPath><clipPath id="a13010bbb7"><path d="M 0.839844 0.148438 L 20.9375 0.148438 L 20.9375 42 L 0.839844 42 Z M 0.839844 0.148438 " clip-rule="nonzero"/></clipPath><clipPath id="8c99ea5c23"><path d="M 10.886719 0.148438 C 5.335938 0.148438 0.839844 9.519531 0.839844 21.074219 C 0.839844 32.632812 5.335938 42 10.886719 42 C 16.4375 42 20.9375 32.632812 20.9375 21.074219 C 20.9375 9.519531 16.4375 0.148438 10.886719 0.148438 Z M 10.886719 0.148438 " clip-rule="nonzero"/></clipPath><clipPath id="fa4abe591a"><rect x="0" width="21" y="0" height="42"/></clipPath><clipPath id="298da3bb04"><path d="M 18.414062 18.226562 L 41.363281 18.226562 L 41.363281 60.089844 L 18.414062 60.089844 Z M 18.414062 18.226562 " clip-rule="nonzero"/></clipPath><clipPath id="1c31103c13"><path d="M 29.886719 18.226562 C 23.550781 18.226562 18.414062 27.59375 18.414062 39.148438 C 18.414062 50.707031 23.550781 60.074219 29.886719 60.074219 C 36.226562 60.074219 41.363281 50.707031 41.363281 39.148438 C 41.363281 27.59375 36.226562 18.226562 29.886719 18.226562 Z M 29.886719 18.226562 " clip-rule="nonzero"/></clipPath><clipPath id="e276e15816"><path d="M 0.414062 0.226562 L 23.363281 0.226562 L 23.363281 42.089844 L 0.414062 42.089844 Z M 0.414062 0.226562 " clip-rule="nonzero"/></clipPath><clipPath id="138ab7349e"><path d="M 11.886719 0.226562 C 5.550781 0.226562 0.414062 9.59375 0.414062 21.148438 C 0.414062 32.707031 5.550781 42.074219 11.886719 42.074219 C 18.226562 42.074219 23.363281 32.707031 23.363281 21.148438 C 23.363281 9.59375 18.226562 0.226562 11.886719 0.226562 Z M 11.886719 0.226562 " clip-rule="nonzero"/></clipPath><clipPath id="54c3df5fb9"><rect x="0" width="24" y="0" height="43"/></clipPath><clipPath id="39c8879ef7"><path d="M 6 16.949219 L 54 16.949219 L 54 58.800781 L 6 58.800781 Z M 6 16.949219 " clip-rule="nonzero"/></clipPath><clipPath id="765d69d754"><path d="M 30 16.949219 C 16.746094 16.949219 6 26.320312 6 37.875 C 6 49.429688 16.746094 58.800781 30 58.800781 C 43.253906 58.800781 54 49.429688 54 37.875 C 54 26.320312 43.253906 16.949219 30 16.949219 Z M 30 16.949219 " clip-rule="nonzero"/></clipPath><clipPath id="39ab027566"><path d="M 0 0.949219 L 48 0.949219 L 48 42.800781 L 0 42.800781 Z M 0 0.949219 " clip-rule="nonzero"/></clipPath><clipPath id="69241693c7"><path d="M 24 0.949219 C 10.746094 0.949219 0 10.320312 0 21.875 C 0 33.429688 10.746094 42.800781 24 42.800781 C 37.253906 42.800781 48 33.429688 48 21.875 C 48 10.320312 37.253906 0.949219 24 0.949219 Z M 24 0.949219 " clip-rule="nonzero"/></clipPath><clipPath id="25b90d2989"><rect x="0" width="48" y="0" height="43"/></clipPath><clipPath id="14df7f64df"><path d="M 4 2 L 56 2 L 56 60.949219 L 4 60.949219 Z M 4 2 " clip-rule="nonzero"/></clipPath></defs><g clip-path="url(#98ef2d6e2b)"><g clip-path="url(#bbcbd81876)"><g transform="matrix(1, 0, 0, 1, 6, 29)"><g clip-path="url(#d1c5415672)"><g clip-path="url(#4e17a81be8)"><g clip-path="url(#204db85357)"><path fill="#ffffff" d="M 0 0.535156 L 33.953125 0.535156 L 33.953125 29.800781 L 0 29.800781 Z M 0 0.535156 " fill-opacity="1" fill-rule="nonzero"/></g></g></g></g></g></g><g clip-path="url(#c7101777d4)"><g clip-path="url(#0fd0eb48c0)"><g transform="matrix(1, 0, 0, 1, 18, 29)"><g clip-path="url(#33926ccc3b)"><g clip-path="url(#e34b6ab4b4)"><g clip-path="url(#5193857733)"><path fill="#ffffff" d="M 0.523438 0.535156 L 35.964844 0.535156 L 35.964844 29.800781 L 0.523438 29.800781 Z M 0.523438 0.535156 " fill-opacity="1" fill-rule="nonzero"/></g></g></g></g></g></g><g clip-path="url(#3818a176f4)"><g clip-path="url(#85bacd7599)"><g transform="matrix(1, 0, 0, 1, 10, 9)"><g clip-path="url(#06d7381f3a)"><g clip-path="url(#be08eee630)"><g clip-path="url(#f7e5dd5fdc)"><path fill="#ffffff" d="M 0.0507812 0.675781 L 39.898438 0.675781 L 39.898438 31.128906 L 0.0507812 31.128906 Z M 0.0507812 0.675781 " fill-opacity="1" fill-rule="nonzero"/></g></g></g></g></g></g><g clip-path="url(#2a17beca7b)"><g clip-path="url(#b76fe8ab93)"><g transform="matrix(1, 0, 0, 1, 6, 24)"><g clip-path="url(#e62caf6944)"><g clip-path="url(#a1288cbc7f)"><g clip-path="url(#7ff8506888)"><path fill="#ffffff" d="M 0 0.0742188 L 48.035156 0.0742188 L 48.035156 26.925781 L 0 26.925781 Z M 0 0.0742188 " fill-opacity="1" fill-rule="nonzero"/></g></g></g></g></g></g><g clip-path="url(#5ee0e7a26b)"><g clip-path="url(#c51cf25a12)"><g transform="matrix(1, 0, 0, 1, 17, 6)"><g clip-path="url(#18f0af7d9e)"><g clip-path="url(#2637227b23)"><g clip-path="url(#b1be31edb1)"><path fill="#ffffff" d="M 0.25 0 L 26.035156 0 L 26.035156 24.449219 L 0.25 24.449219 Z M 0.25 0 " fill-opacity="1" fill-rule="nonzero"/></g></g></g></g></g></g><g clip-path="url(#10f56d36cf)"><g clip-path="url(#d0d5fb1fca)"><g transform="matrix(1, 0, 0, 1, 7, 12)"><g clip-path="url(#bd88189fec)"><g clip-path="url(#5bdc9198b9)"><g clip-path="url(#605fa64ad1)"><path fill="#ffffff" d="M 0.0117188 0.75 L 45.78125 0.75 L 45.78125 43.050781 L 0.0117188 43.050781 Z M 0.0117188 0.75 " fill-opacity="1" fill-rule="nonzero"/></g></g></g></g></g></g><g clip-path="url(#806ed1ffc8)"><g clip-path="url(#8e2140b0a1)"><g transform="matrix(1, 0, 0, 1, 19, 3)"><g clip-path="url(#fa4abe591a)"><g clip-path="url(#a13010bbb7)"><g clip-path="url(#8c99ea5c23)"><path fill="#ffffff" d="M 0.839844 0.148438 L 20.9375 0.148438 L 20.9375 42 L 0.839844 42 Z M 0.839844 0.148438 " fill-opacity="1" fill-rule="nonzero"/></g></g></g></g></g></g><g clip-path="url(#298da3bb04)"><g clip-path="url(#1c31103c13)"><g transform="matrix(1, 0, 0, 1, 18, 18)"><g clip-path="url(#54c3df5fb9)"><g clip-path="url(#e276e15816)"><g clip-path="url(#138ab7349e)"><path fill="#ffffff" d="M 0.414062 0.226562 L 23.363281 0.226562 L 23.363281 42.089844 L 0.414062 42.089844 Z M 0.414062 0.226562 " fill-opacity="1" fill-rule="nonzero"/></g></g></g></g></g></g><g clip-path="url(#39c8879ef7)"><g clip-path="url(#765d69d754)"><g transform="matrix(1, 0, 0, 1, 6, 16)"><g clip-path="url(#25b90d2989)"><g clip-path="url(#39ab027566)"><g clip-path="url(#69241693c7)"><path fill="#ffffff" d="M 0 0.949219 L 48.0625 0.949219 L 48.0625 42.800781 L 0 42.800781 Z M 0 0.949219 " fill-opacity="1" fill-rule="nonzero"/></g></g></g></g></g></g><g clip-path="url(#14df7f64df)"><path fill="#68e631" d="M 53.53125 43.691406 C 54.996094 41.074219 56.574219 36.78125 54.847656 32.191406 C 54.652344 31.65625 54.019531 31.378906 53.5 31.613281 C 53.960938 28.640625 53.382812 25.914062 51.730469 23.496094 C 51.429688 23.03125 50.734375 22.894531 50.292969 23.21875 C 49.324219 16.175781 44.867188 12.855469 44.65625 12.703125 C 43.875 12.15625 43.222656 12.8125 42.792969 13.449219 C 42.25 11.324219 40.792969 8.296875 36.914062 5.777344 C 36.347656 5.433594 35.746094 5.644531 35.371094 6.195312 C 35.371094 6.195312 34.140625 4.488281 34.140625 4.488281 C 32.253906 1.734375 27.640625 1.734375 25.75 4.484375 C 25.75 4.484375 24.515625 6.199219 24.515625 6.199219 C 24.414062 6.078125 24.347656 5.992188 24.34375 5.988281 C 24.007812 5.578125 23.417969 5.488281 22.976562 5.777344 C 19.09375 8.296875 17.640625 11.324219 17.097656 13.449219 C 16.691406 12.824219 15.984375 12.148438 15.234375 12.703125 C 15.023438 12.855469 10.566406 16.175781 9.597656 23.222656 C 9.152344 22.890625 8.460938 23.03125 8.160156 23.496094 C 6.507812 25.914062 5.929688 28.636719 6.390625 31.609375 C 6.160156 31.519531 5.910156 31.492188 5.675781 31.574219 C 5.382812 31.675781 5.152344 31.902344 5.042969 32.191406 C 3.316406 36.78125 4.894531 41.070312 6.359375 43.691406 C 6.019531 43.570312 5.640625 43.621094 5.355469 43.855469 C 5.027344 44.128906 4.898438 44.570312 5.027344 44.976562 C 8.523438 55.585938 14.03125 60.316406 22.292969 58.785156 C 23.21875 59.167969 25.996094 60.179688 29.433594 60.179688 C 31.613281 60.179688 34.050781 59.761719 36.445312 58.523438 C 45.242188 60.773438 51.230469 56.082031 54.863281 44.976562 C 55.136719 44.1875 54.308594 43.386719 53.53125 43.691406 Z M 50.40625 44.664062 C 49.246094 44.882812 47.617188 45.054688 45.539062 44.933594 C 49.203125 41.289062 53.132812 34.035156 53.234375 33.996094 C 54.457031 38.96875 51.277344 43.535156 50.40625 44.664062 Z M 29.945312 53.5625 C 26.152344 51.644531 22.371094 49.152344 19.089844 46.425781 C 22.238281 45.914062 26.078125 45.074219 29.984375 42.976562 C 33.847656 45.035156 37.628906 45.894531 40.804688 46.417969 C 37.523438 49.148438 33.738281 51.644531 29.945312 53.5625 Z M 21.929688 22.070312 C 24.003906 24.175781 26.101562 26.050781 28.191406 27.667969 C 24.90625 29.855469 21.65625 31.386719 18.503906 32.234375 C 16.152344 30.132812 14.175781 28.164062 12.714844 26.628906 C 15.652344 25.792969 18.742188 24.265625 21.929688 22.070312 Z M 29.945312 15.332031 C 32.042969 17.410156 34.15625 19.25 36.257812 20.835938 C 34.160156 22.945312 32.042969 24.816406 29.945312 26.402344 C 27.847656 24.820312 25.730469 22.945312 23.632812 20.835938 C 25.734375 19.25 27.847656 17.410156 29.945312 15.332031 Z M 47.175781 26.628906 C 45.699219 28.179688 43.730469 30.140625 41.386719 32.234375 C 38.234375 31.386719 34.980469 29.851562 31.699219 27.667969 C 33.789062 26.050781 35.886719 24.171875 37.960938 22.070312 C 41.144531 24.265625 44.234375 25.792969 47.175781 26.628906 Z M 32.089844 41.710938 C 35.554688 39.519531 39.273438 36.804688 41.945312 34.507812 C 45.421875 35.277344 48.277344 35.175781 50.398438 34.785156 C 49.011719 37.945312 46.4375 41.308594 42.839844 44.636719 C 39.867188 44.195312 36.023438 43.566406 32.089844 41.710938 Z M 29.945312 28.992188 C 33.160156 31.203125 36.363281 32.828125 39.503906 33.84375 C 36.746094 36.097656 33.183594 38.613281 29.976562 40.574219 C 26.703125 38.582031 23.121094 36.0625 20.390625 33.84375 C 23.527344 32.828125 26.734375 31.203125 29.945312 28.992188 Z M 17.945312 34.507812 C 20.578125 36.765625 24.328125 39.488281 27.867188 41.714844 C 23.910156 43.585938 20.019531 44.199219 17.054688 44.636719 C 13.453125 41.308594 10.878906 37.945312 9.492188 34.785156 C 11.613281 35.175781 14.46875 35.273438 17.945312 34.507812 Z M 51.210938 32.46875 C 49.519531 32.929688 47.058594 33.246094 43.894531 32.765625 C 46.484375 30.378906 50.480469 26.113281 50.707031 25.855469 C 51.667969 27.835938 51.828125 30.054688 51.210938 32.46875 Z M 44.1875 15.042969 C 45.492188 16.320312 48.042969 19.472656 48.371094 24.800781 C 45.554688 24.097656 42.554688 22.675781 39.425781 20.558594 C 40.960938 18.925781 42.6875 16.933594 44.1875 15.042969 Z M 41.03125 15.621094 C 39.882812 16.980469 38.792969 18.203125 37.71875 19.335938 C 35.59375 17.75 33.441406 15.878906 31.261719 13.714844 C 33.921875 11.035156 35.242188 9.523438 36.535156 8.039062 C 40.613281 11.042969 41.007812 14.570312 41.03125 15.621094 Z M 27.441406 5.695312 C 28.574219 4.078125 31.320312 4.078125 32.453125 5.695312 C 32.453125 5.695312 33.972656 7.808594 33.972656 7.808594 C 33.082031 8.816406 31.683594 10.34375 29.945312 12.089844 C 28.195312 10.332031 26.804688 8.8125 25.917969 7.808594 Z M 23.355469 8.039062 C 24.644531 9.519531 25.953125 11.019531 28.628906 13.714844 C 26.480469 15.855469 24.3125 17.734375 22.167969 19.335938 C 21.097656 18.203125 20.003906 16.976562 18.859375 15.617188 C 18.882812 14.566406 19.277344 11.042969 23.355469 8.039062 Z M 15.703125 15.042969 C 17.203125 16.933594 18.929688 18.929688 20.464844 20.558594 C 17.335938 22.675781 14.335938 24.097656 11.519531 24.800781 C 11.847656 19.472656 14.402344 16.316406 15.703125 15.042969 Z M 9.183594 25.855469 C 11.109375 28.011719 12.890625 29.878906 15.992188 32.765625 C 12.832031 33.246094 10.371094 32.929688 8.679688 32.46875 C 8.058594 30.054688 8.222656 27.835938 9.183594 25.855469 Z M 6.65625 33.996094 C 6.757812 34.035156 10.6875 41.292969 14.355469 44.9375 C 12.292969 45.058594 10.652344 44.886719 9.484375 44.664062 C 8.617188 43.539062 5.433594 38.96875 6.65625 33.996094 Z M 7.726562 46.394531 C 10.160156 47 12.292969 47.292969 16.371094 46.828125 C 19.667969 49.757812 23.570312 52.488281 27.546875 54.648438 C 19.097656 59.253906 11.710938 57.339844 7.726562 46.394531 Z M 25.902344 57.695312 C 27.214844 57.175781 28.5625 56.507812 29.945312 55.691406 C 31.15625 56.40625 32.34375 57.007812 33.5 57.496094 C 30.6875 58.363281 27.917969 58.121094 25.902344 57.695312 Z M 38.796875 56.882812 C 36.808594 56.613281 34.644531 55.855469 32.34375 54.648438 C 36.320312 52.488281 40.222656 49.757812 43.519531 46.828125 C 47.601562 47.292969 49.726562 47 52.164062 46.394531 C 49.15625 54.265625 44.777344 57.699219 38.796875 56.882812 Z M 38.796875 56.882812 " fill-opacity="1" fill-rule="nonzero"/></g><g fill="#cf4f00" fill-opacity="1"><g transform="translate(0.744142, 70.960284)"><g><path d="M 0.90625 0 L 0.90625 -7 L 5.5625 -7 L 5.5625 -5.859375 L 2.15625 -5.859375 L 2.15625 -4.078125 L 5.328125 -4.078125 L 5.328125 -2.921875 L 2.15625 -2.921875 L 2.15625 -1.1875 L 5.5625 -1.1875 L 5.5625 0 Z M 0.90625 0 "/></g></g></g><g fill="#cf4f00" fill-opacity="1"><g transform="translate(6.920609, 70.960284)"><g><path d="M 2.6875 0.09375 C 2.28125 0.09375 1.925781 0.0234375 1.625 -0.109375 C 1.320312 -0.253906 1.070312 -0.445312 0.875 -0.6875 C 0.675781 -0.9375 0.523438 -1.210938 0.421875 -1.515625 C 0.328125 -1.828125 0.28125 -2.144531 0.28125 -2.46875 C 0.28125 -2.789062 0.328125 -3.109375 0.421875 -3.421875 C 0.523438 -3.734375 0.675781 -4.007812 0.875 -4.25 C 1.070312 -4.5 1.316406 -4.695312 1.609375 -4.84375 C 1.910156 -4.988281 2.265625 -5.0625 2.671875 -5.0625 C 3.160156 -5.0625 3.59375 -4.9375 3.96875 -4.6875 C 4.34375 -4.445312 4.625 -4.082031 4.8125 -3.59375 L 3.671875 -3.15625 C 3.609375 -3.382812 3.488281 -3.578125 3.3125 -3.734375 C 3.132812 -3.890625 2.921875 -3.96875 2.671875 -3.96875 C 2.460938 -3.96875 2.285156 -3.921875 2.140625 -3.828125 C 1.992188 -3.742188 1.875 -3.628906 1.78125 -3.484375 C 1.6875 -3.347656 1.617188 -3.191406 1.578125 -3.015625 C 1.535156 -2.835938 1.515625 -2.65625 1.515625 -2.46875 C 1.515625 -2.28125 1.535156 -2.097656 1.578125 -1.921875 C 1.617188 -1.742188 1.6875 -1.582031 1.78125 -1.4375 C 1.875 -1.300781 1.992188 -1.191406 2.140625 -1.109375 C 2.285156 -1.035156 2.460938 -1 2.671875 -1 C 2.921875 -1 3.132812 -1.070312 3.3125 -1.21875 C 3.488281 -1.363281 3.609375 -1.550781 3.671875 -1.78125 L 4.765625 -1.375 C 4.660156 -1.0625 4.503906 -0.796875 4.296875 -0.578125 C 4.097656 -0.359375 3.859375 -0.191406 3.578125 -0.078125 C 3.304688 0.0351562 3.007812 0.09375 2.6875 0.09375 Z M 2.6875 0.09375 "/></g></g></g><g fill="#cf4f00" fill-opacity="1"><g transform="translate(11.901467, 70.960284)"><g><path d="M 2.796875 0.09375 C 2.410156 0.09375 2.0625 0.0234375 1.75 -0.109375 C 1.4375 -0.242188 1.164062 -0.429688 0.9375 -0.671875 C 0.71875 -0.910156 0.546875 -1.1875 0.421875 -1.5 C 0.304688 -1.8125 0.25 -2.140625 0.25 -2.484375 C 0.25 -2.835938 0.304688 -3.164062 0.421875 -3.46875 C 0.546875 -3.78125 0.71875 -4.054688 0.9375 -4.296875 C 1.164062 -4.535156 1.4375 -4.722656 1.75 -4.859375 C 2.0625 -4.992188 2.410156 -5.0625 2.796875 -5.0625 C 3.179688 -5.0625 3.523438 -4.992188 3.828125 -4.859375 C 4.140625 -4.722656 4.40625 -4.535156 4.625 -4.296875 C 4.851562 -4.054688 5.023438 -3.78125 5.140625 -3.46875 C 5.265625 -3.164062 5.328125 -2.835938 5.328125 -2.484375 C 5.328125 -2.140625 5.265625 -1.8125 5.140625 -1.5 C 5.023438 -1.1875 4.851562 -0.910156 4.625 -0.671875 C 4.40625 -0.429688 4.140625 -0.242188 3.828125 -0.109375 C 3.523438 0.0234375 3.179688 0.09375 2.796875 0.09375 Z M 2.796875 -0.9375 C 3.023438 -0.9375 3.21875 -0.976562 3.375 -1.0625 C 3.539062 -1.144531 3.671875 -1.257812 3.765625 -1.40625 C 3.867188 -1.550781 3.945312 -1.71875 4 -1.90625 C 4.050781 -2.09375 4.078125 -2.285156 4.078125 -2.484375 C 4.078125 -2.691406 4.050781 -2.882812 4 -3.0625 C 3.945312 -3.25 3.867188 -3.410156 3.765625 -3.546875 C 3.671875 -3.691406 3.539062 -3.804688 3.375 -3.890625 C 3.21875 -3.972656 3.023438 -4.015625 2.796875 -4.015625 C 2.484375 -4.015625 2.234375 -3.941406 2.046875 -3.796875 C 1.859375 -3.660156 1.722656 -3.472656 1.640625 -3.234375 C 1.554688 -3.003906 1.515625 -2.753906 1.515625 -2.484375 C 1.515625 -2.285156 1.535156 -2.09375 1.578125 -1.90625 C 1.628906 -1.71875 1.707031 -1.550781 1.8125 -1.40625 C 1.914062 -1.257812 2.046875 -1.144531 2.203125 -1.0625 C 2.367188 -0.976562 2.566406 -0.9375 2.796875 -0.9375 Z M 2.796875 -0.9375 "/></g></g></g><g fill="#cf4f00" fill-opacity="1"><g transform="translate(17.49749, 70.960284)"><g><path d="M 0.90625 0 L 0.90625 -7 L 2.59375 -7 L 4.453125 -2.015625 L 6.3125 -7 L 8.015625 -7 L 8.015625 0 L 6.796875 0 L 6.796875 -5.234375 L 5.0625 -0.609375 L 3.84375 -0.609375 L 2.109375 -5.234375 L 2.109375 0 Z M 0.90625 0 "/></g></g></g><g fill="#cf4f00" fill-opacity="1"><g transform="translate(26.417392, 70.960284)"><g><path d="M 2.078125 0.09375 C 1.734375 0.09375 1.425781 0.03125 1.15625 -0.09375 C 0.882812 -0.21875 0.664062 -0.398438 0.5 -0.640625 C 0.34375 -0.878906 0.265625 -1.171875 0.265625 -1.515625 C 0.265625 -1.785156 0.316406 -2.007812 0.421875 -2.1875 C 0.523438 -2.375 0.664062 -2.523438 0.84375 -2.640625 C 1.019531 -2.753906 1.226562 -2.832031 1.46875 -2.875 C 1.707031 -2.925781 1.96875 -2.953125 2.25 -2.953125 L 3.53125 -2.953125 C 3.53125 -3.265625 3.445312 -3.515625 3.28125 -3.703125 C 3.125 -3.898438 2.882812 -4 2.5625 -4 C 2.375 -4 2.203125 -3.960938 2.046875 -3.890625 C 1.898438 -3.828125 1.769531 -3.742188 1.65625 -3.640625 C 1.550781 -3.535156 1.460938 -3.421875 1.390625 -3.296875 L 0.46875 -3.96875 C 0.625 -4.1875 0.800781 -4.375 1 -4.53125 C 1.195312 -4.695312 1.421875 -4.828125 1.671875 -4.921875 C 1.929688 -5.015625 2.222656 -5.0625 2.546875 -5.0625 C 2.992188 -5.0625 3.378906 -4.972656 3.703125 -4.796875 C 4.023438 -4.617188 4.269531 -4.375 4.4375 -4.0625 C 4.601562 -3.757812 4.6875 -3.40625 4.6875 -3 L 4.6875 0 L 3.6875 0 L 3.609375 -0.703125 C 3.398438 -0.398438 3.164062 -0.191406 2.90625 -0.078125 C 2.644531 0.0351562 2.367188 0.09375 2.078125 0.09375 Z M 2.25 -0.921875 C 2.414062 -0.921875 2.578125 -0.953125 2.734375 -1.015625 C 2.890625 -1.078125 3.023438 -1.160156 3.140625 -1.265625 C 3.253906 -1.378906 3.347656 -1.503906 3.421875 -1.640625 C 3.492188 -1.773438 3.53125 -1.921875 3.53125 -2.078125 L 2.3125 -2.078125 C 2.039062 -2.078125 1.835938 -2.015625 1.703125 -1.890625 C 1.578125 -1.773438 1.515625 -1.640625 1.515625 -1.484375 C 1.515625 -1.316406 1.578125 -1.179688 1.703125 -1.078125 C 1.828125 -0.972656 2.007812 -0.921875 2.25 -0.921875 Z M 2.25 -0.921875 "/></g></g></g><g fill="#cf4f00" fill-opacity="1"><g transform="translate(31.681033, 70.960284)"><g><path d="M 3.84375 -7 L 5.078125 -7 L 5.078125 0 L 3.953125 0 L 3.890625 -0.5625 C 3.722656 -0.320312 3.507812 -0.148438 3.25 -0.046875 C 3 0.046875 2.734375 0.09375 2.453125 0.09375 C 2.109375 0.09375 1.800781 0.0234375 1.53125 -0.109375 C 1.269531 -0.242188 1.046875 -0.429688 0.859375 -0.671875 C 0.679688 -0.910156 0.546875 -1.179688 0.453125 -1.484375 C 0.359375 -1.796875 0.3125 -2.128906 0.3125 -2.484375 C 0.3125 -2.828125 0.359375 -3.148438 0.453125 -3.453125 C 0.546875 -3.765625 0.679688 -4.039062 0.859375 -4.28125 C 1.035156 -4.519531 1.253906 -4.707031 1.515625 -4.84375 C 1.785156 -4.988281 2.09375 -5.0625 2.4375 -5.0625 C 2.695312 -5.0625 2.953125 -5.015625 3.203125 -4.921875 C 3.460938 -4.828125 3.675781 -4.671875 3.84375 -4.453125 Z M 2.75 -1 C 3.03125 -1 3.257812 -1.0625 3.4375 -1.1875 C 3.613281 -1.320312 3.742188 -1.5 3.828125 -1.71875 C 3.910156 -1.945312 3.953125 -2.203125 3.953125 -2.484375 C 3.953125 -2.753906 3.910156 -3 3.828125 -3.21875 C 3.742188 -3.445312 3.613281 -3.628906 3.4375 -3.765625 C 3.257812 -3.898438 3.03125 -3.96875 2.75 -3.96875 C 2.46875 -3.96875 2.238281 -3.898438 2.0625 -3.765625 C 1.882812 -3.628906 1.753906 -3.445312 1.671875 -3.21875 C 1.585938 -3 1.546875 -2.753906 1.546875 -2.484375 C 1.546875 -2.203125 1.585938 -1.945312 1.671875 -1.71875 C 1.753906 -1.5 1.882812 -1.320312 2.0625 -1.1875 C 2.238281 -1.0625 2.46875 -1 2.75 -1 Z M 2.75 -1 "/></g></g></g><g fill="#cf4f00" fill-opacity="1"><g transform="translate(37.490385, 70.960284)"><g><path d="M 2.78125 0.09375 C 2.351562 0.09375 1.984375 0.0234375 1.671875 -0.109375 C 1.359375 -0.242188 1.097656 -0.429688 0.890625 -0.671875 C 0.679688 -0.921875 0.523438 -1.195312 0.421875 -1.5 C 0.316406 -1.800781 0.265625 -2.117188 0.265625 -2.453125 C 0.265625 -2.785156 0.3125 -3.101562 0.40625 -3.40625 C 0.507812 -3.71875 0.660156 -3.992188 0.859375 -4.234375 C 1.054688 -4.484375 1.304688 -4.679688 1.609375 -4.828125 C 1.921875 -4.984375 2.285156 -5.0625 2.703125 -5.0625 C 3.046875 -5.0625 3.34375 -5.007812 3.59375 -4.90625 C 3.851562 -4.800781 4.070312 -4.660156 4.25 -4.484375 C 4.4375 -4.316406 4.582031 -4.125 4.6875 -3.90625 C 4.800781 -3.695312 4.878906 -3.472656 4.921875 -3.234375 C 4.972656 -3.003906 5 -2.78125 5 -2.5625 C 5 -2.457031 4.992188 -2.359375 4.984375 -2.265625 C 4.972656 -2.179688 4.960938 -2.117188 4.953125 -2.078125 L 1.546875 -2.078125 C 1.585938 -1.867188 1.65625 -1.679688 1.75 -1.515625 C 1.84375 -1.347656 1.972656 -1.21875 2.140625 -1.125 C 2.316406 -1.039062 2.535156 -1 2.796875 -1 C 3.015625 -1 3.222656 -1.035156 3.421875 -1.109375 C 3.617188 -1.191406 3.804688 -1.328125 3.984375 -1.515625 L 4.8125 -0.796875 C 4.539062 -0.492188 4.238281 -0.269531 3.90625 -0.125 C 3.570312 0.0195312 3.195312 0.09375 2.78125 0.09375 Z M 1.546875 -2.953125 L 3.8125 -2.953125 C 3.769531 -3.304688 3.648438 -3.578125 3.453125 -3.765625 C 3.253906 -3.953125 3 -4.046875 2.6875 -4.046875 C 2.445312 -4.046875 2.25 -4 2.09375 -3.90625 C 1.945312 -3.8125 1.828125 -3.679688 1.734375 -3.515625 C 1.648438 -3.347656 1.585938 -3.160156 1.546875 -2.953125 Z M 1.546875 -2.953125 "/></g></g></g><g fill="#cf4f00" fill-opacity="1"><g transform="translate(42.783792, 70.960284)"><g><path d="M 0.6875 -5.890625 L 0.6875 -7 L 1.953125 -7 L 1.953125 -5.890625 Z M 0.71875 0 L 0.71875 -4.953125 L 1.921875 -4.953125 L 1.921875 0 Z M 0.71875 0 "/></g></g></g><g fill="#cf4f00" fill-opacity="1"><g transform="translate(45.423051, 70.960284)"><g><path d="M 0.71875 0 L 0.71875 -4.953125 L 1.90625 -4.953125 L 1.90625 -4.125 C 1.976562 -4.320312 2.082031 -4.488281 2.21875 -4.625 C 2.351562 -4.769531 2.507812 -4.878906 2.6875 -4.953125 C 2.863281 -5.023438 3.046875 -5.0625 3.234375 -5.0625 C 3.390625 -5.0625 3.546875 -5.03125 3.703125 -4.96875 C 3.867188 -4.914062 4.015625 -4.828125 4.140625 -4.703125 L 3.578125 -3.703125 C 3.410156 -3.816406 3.234375 -3.875 3.046875 -3.875 C 2.898438 -3.875 2.757812 -3.835938 2.625 -3.765625 C 2.488281 -3.703125 2.363281 -3.597656 2.25 -3.453125 C 2.144531 -3.316406 2.054688 -3.132812 1.984375 -2.90625 C 1.921875 -2.675781 1.890625 -2.40625 1.890625 -2.09375 L 1.890625 0 Z M 0.71875 0 "/></g></g></g><g fill="#cf4f00" fill-opacity="1"><g transform="translate(49.466283, 70.960284)"><g><path d="M 2.078125 0.09375 C 1.734375 0.09375 1.425781 0.03125 1.15625 -0.09375 C 0.882812 -0.21875 0.664062 -0.398438 0.5 -0.640625 C 0.34375 -0.878906 0.265625 -1.171875 0.265625 -1.515625 C 0.265625 -1.785156 0.316406 -2.007812 0.421875 -2.1875 C 0.523438 -2.375 0.664062 -2.523438 0.84375 -2.640625 C 1.019531 -2.753906 1.226562 -2.832031 1.46875 -2.875 C 1.707031 -2.925781 1.96875 -2.953125 2.25 -2.953125 L 3.53125 -2.953125 C 3.53125 -3.265625 3.445312 -3.515625 3.28125 -3.703125 C 3.125 -3.898438 2.882812 -4 2.5625 -4 C 2.375 -4 2.203125 -3.960938 2.046875 -3.890625 C 1.898438 -3.828125 1.769531 -3.742188 1.65625 -3.640625 C 1.550781 -3.535156 1.460938 -3.421875 1.390625 -3.296875 L 0.46875 -3.96875 C 0.625 -4.1875 0.800781 -4.375 1 -4.53125 C 1.195312 -4.695312 1.421875 -4.828125 1.671875 -4.921875 C 1.929688 -5.015625 2.222656 -5.0625 2.546875 -5.0625 C 2.992188 -5.0625 3.378906 -4.972656 3.703125 -4.796875 C 4.023438 -4.617188 4.269531 -4.375 4.4375 -4.0625 C 4.601562 -3.757812 4.6875 -3.40625 4.6875 -3 L 4.6875 0 L 3.6875 0 L 3.609375 -0.703125 C 3.398438 -0.398438 3.164062 -0.191406 2.90625 -0.078125 C 2.644531 0.0351562 2.367188 0.09375 2.078125 0.09375 Z M 2.25 -0.921875 C 2.414062 -0.921875 2.578125 -0.953125 2.734375 -1.015625 C 2.890625 -1.078125 3.023438 -1.160156 3.140625 -1.265625 C 3.253906 -1.378906 3.347656 -1.503906 3.421875 -1.640625 C 3.492188 -1.773438 3.53125 -1.921875 3.53125 -2.078125 L 2.3125 -2.078125 C 2.039062 -2.078125 1.835938 -2.015625 1.703125 -1.890625 C 1.578125 -1.773438 1.515625 -1.640625 1.515625 -1.484375 C 1.515625 -1.316406 1.578125 -1.179688 1.703125 -1.078125 C 1.828125 -0.972656 2.007812 -0.921875 2.25 -0.921875 Z M 2.25 -0.921875 "/></g></g></g><g fill="#cf4f00" fill-opacity="1"><g transform="translate(54.729924, 70.960284)"><g><path d="M 2.21875 0.09375 C 1.863281 0.09375 1.546875 0.03125 1.265625 -0.09375 C 0.984375 -0.21875 0.742188 -0.382812 0.546875 -0.59375 C 0.359375 -0.800781 0.222656 -1.035156 0.140625 -1.296875 L 1.09375 -1.71875 C 1.144531 -1.59375 1.207031 -1.46875 1.28125 -1.34375 C 1.363281 -1.21875 1.472656 -1.113281 1.609375 -1.03125 C 1.753906 -0.945312 1.9375 -0.90625 2.15625 -0.90625 C 2.34375 -0.90625 2.492188 -0.9375 2.609375 -1 C 2.722656 -1.0625 2.804688 -1.132812 2.859375 -1.21875 C 2.921875 -1.3125 2.953125 -1.40625 2.953125 -1.5 C 2.953125 -1.613281 2.90625 -1.707031 2.8125 -1.78125 C 2.726562 -1.851562 2.609375 -1.910156 2.453125 -1.953125 C 2.304688 -1.992188 2.144531 -2.035156 1.96875 -2.078125 C 1.789062 -2.128906 1.613281 -2.1875 1.4375 -2.25 C 1.269531 -2.3125 1.109375 -2.390625 0.953125 -2.484375 C 0.804688 -2.585938 0.6875 -2.722656 0.59375 -2.890625 C 0.507812 -3.054688 0.46875 -3.265625 0.46875 -3.515625 C 0.46875 -3.773438 0.515625 -4 0.609375 -4.1875 C 0.710938 -4.382812 0.847656 -4.546875 1.015625 -4.671875 C 1.191406 -4.804688 1.390625 -4.90625 1.609375 -4.96875 C 1.835938 -5.03125 2.070312 -5.0625 2.3125 -5.0625 C 2.738281 -5.0625 3.109375 -4.960938 3.421875 -4.765625 C 3.742188 -4.578125 4 -4.316406 4.1875 -3.984375 L 3.25 -3.46875 C 3.1875 -3.570312 3.113281 -3.671875 3.03125 -3.765625 C 2.945312 -3.859375 2.84375 -3.9375 2.71875 -4 C 2.59375 -4.0625 2.441406 -4.09375 2.265625 -4.09375 C 2.066406 -4.09375 1.910156 -4.050781 1.796875 -3.96875 C 1.679688 -3.882812 1.625 -3.785156 1.625 -3.671875 C 1.625 -3.566406 1.671875 -3.476562 1.765625 -3.40625 C 1.859375 -3.34375 1.976562 -3.285156 2.125 -3.234375 C 2.269531 -3.191406 2.429688 -3.144531 2.609375 -3.09375 C 2.796875 -3.050781 2.976562 -2.992188 3.15625 -2.921875 C 3.332031 -2.847656 3.492188 -2.753906 3.640625 -2.640625 C 3.796875 -2.523438 3.914062 -2.378906 4 -2.203125 C 4.09375 -2.023438 4.140625 -1.804688 4.140625 -1.546875 C 4.140625 -1.265625 4.082031 -1.019531 3.96875 -0.8125 C 3.863281 -0.601562 3.71875 -0.429688 3.53125 -0.296875 C 3.34375 -0.160156 3.132812 -0.0625 2.90625 0 C 2.675781 0.0625 2.445312 0.09375 2.21875 0.09375 Z M 2.21875 0.09375 "/></g></g></g></svg>